# xmcd CD database file
#
# Track frame offsets:
#	150
#	14319
#	33624
#	55751
#	74450
#	97899
#	129142
#	141747
#	176886
#	210644
#	221701
#
# Disc length: 3192 seconds
#
# Revision: 3
# Processed by: cddbd v1.5.1PL2 Copyright (c) Steve Scherf et al.
# Submitted via: CDex 1.51
#
DISCID=a60c760b
DTITLE=Elephant Kashimashi - 花男
DYEAR=2003
DGENRE=JPop
TTITLE0=so many people POTSHOT
TTITLE1=さらば青春 HUSKING BEE
TTITLE2=孤独な太陽 STANCE PUNKS
TTITLE3=孤独な旅人 ストレイテナー
TTITLE4=浮雲男 (Takkyu's Japp ppopp Mix) 石野卓球
TTITLE5=星の砂 DMBQ
TTITLE6=男餓鬼道空っ風 怒髪天
TTITLE7=遁世 (白昼夢ver.) Syrup 16g
TTITLE8=男は行く KING BROTHERS
TTITLE9=星の降るような夜に BAZRA
TTITLE10=悲しみの果て 銀杏BOYZ
EXTD=YEAR: 2003
EXTT0=
EXTT1=
EXTT2=
EXTT3=
EXTT4=
EXTT5=
EXTT6=
EXTT7=
EXTT8=
EXTT9=
EXTT10=
PLAYORDER=
